<svg width="36" height="36" viewBox="0 0 36 36" fill="none" xmlns="http://www.w3.org/2000/svg">
<path d="M18.5 6C15.8958 6 13.3983 7.02407 11.5568 8.84692C9.71541 10.6698 8.6809 13.1421 8.6809 15.72V20.9062L6.57743 26.1204C6.51155 26.2842 6.48715 26.4614 6.50638 26.6366C6.5256 26.8118 6.58786 26.9798 6.68772 27.1257C6.78758 27.2716 6.92201 27.3911 7.07926 27.4738C7.23652 27.5565 7.41183 27.5998 7.58989 27.6H29.4101C29.5882 27.5998 29.7635 27.5565 29.9207 27.4738C30.078 27.3911 30.2124 27.2716 30.3123 27.1257C30.4121 26.9798 30.4744 26.8118 30.4936 26.6366C30.5128 26.4614 30.4885 26.2842 30.4226 26.1204L28.3191 20.904V15.72C28.3191 13.1421 27.2846 10.6698 25.4432 8.84692C23.6017 7.02407 21.1042 6 18.5 6ZM18.5 33C17.5323 33.0002 16.592 32.6821 15.8269 32.0956C15.0618 31.5091 14.5153 30.6875 14.2734 29.76H22.7266C22.4847 30.6875 21.9382 31.5091 21.1731 32.0956C20.408 32.6821 19.4677 33.0002 18.5 33Z" fill="#A2A2A2"/>
</svg>
